solid 
facet normal -0.23725815 0.74061376 0.62864923
 outer loop
  vertex -1.004002 1.3572328 -0.38716805
  vertex -1.3772235 0.017589927 1.0502124
  vertex 0.5294857 0.12399471 1.6444665
 endloop
endfacet
facet normal -0.23725814 0.7406138 0.62864923
 outer loop
  vertex -1.004002 1.3572328 -0.38716805
  vertex 0.5294857 0.12399471 1.6444665
  vertex 0.90270734 1.4636376 0.20708609
 endloop
endfacet
facet normal 0.9533546 0.053202316 0.29712707
 outer loop
  vertex 1.3772235 -0.017589927 -1.0502124
  vertex 0.90270734 1.4636376 0.20708609
  vertex 0.5294857 0.12399471 1.6444665
 endloop
endfacet
facet normal 0.9533546 0.05320236 0.29712707
 outer loop
  vertex 1.3772235 -0.017589927 -1.0502124
  vertex 0.5294857 0.12399471 1.6444665
  vertex 1.004002 -1.3572328 0.38716805
 endloop
endfacet
facet normal -0.18661076 -0.6698215 0.7186902
 outer loop
  vertex 1.004002 -1.3572328 0.38716805
  vertex 0.5294857 0.12399471 1.6444665
  vertex -1.3772235 0.017589927 1.0502124
 endloop
endfacet
facet normal -0.18661074 -0.6698215 0.7186903
 outer loop
  vertex 1.004002 -1.3572328 0.38716805
  vertex -1.3772235 0.017589927 1.0502124
  vertex -0.90270734 -1.4636376 -0.20708609
 endloop
endfacet
facet normal 0.23725815 -0.74061376 -0.62864923
 outer loop
  vertex -0.90270734 -1.4636376 -0.20708609
  vertex -0.5294857 -0.12399471 -1.6444665
  vertex 1.3772235 -0.017589927 -1.0502124
 endloop
endfacet
facet normal 0.2372581 -0.74061376 -0.62864923
 outer loop
  vertex -0.90270734 -1.4636376 -0.20708609
  vertex 1.3772235 -0.017589927 -1.0502124
  vertex 1.004002 -1.3572328 0.38716805
 endloop
endfacet
facet normal 0.18661076 0.6698215 -0.7186903
 outer loop
  vertex -0.5294857 -0.12399471 -1.6444665
  vertex -1.004002 1.3572328 -0.38716805
  vertex 0.90270734 1.4636376 0.20708609
 endloop
endfacet
facet normal 0.18661077 0.6698215 -0.7186903
 outer loop
  vertex -0.5294857 -0.12399471 -1.6444665
  vertex 0.90270734 1.4636376 0.20708609
  vertex 1.3772235 -0.017589927 -1.0502124
 endloop
endfacet
facet normal -0.9533546 -0.053202353 -0.29712704
 outer loop
  vertex -0.90270734 -1.4636376 -0.20708609
  vertex -1.3772235 0.017589927 1.0502124
  vertex -1.004002 1.3572328 -0.38716805
 endloop
endfacet
facet normal -0.9533546 -0.053202353 -0.29712713
 outer loop
  vertex -0.90270734 -1.4636376 -0.20708609
  vertex -1.004002 1.3572328 -0.38716805
  vertex -0.5294857 -0.12399471 -1.6444665
 endloop
endfacet
endsolid 
