solid 
facet normal -0.0083550215 0.59767145 0.8016976
 outer loop
  vertex -0.04020909 1.731036 -0.04356599
  vertex -1.4221604 0.565072 0.8112665
  vertex 0.023498978 -0.53569293 1.6469611
 endloop
endfacet
facet normal -0.0083550215 0.5976715 0.80169755
 outer loop
  vertex -0.04020909 1.731036 -0.04356599
  vertex 0.023498978 -0.53569293 1.6469611
  vertex 1.4054503 0.630271 0.7921286
 endloop
endfacet
facet normal 0.72282976 -0.5503825 0.41784734
 outer loop
  vertex 1.4221604 -0.565072 -0.8112665
  vertex 1.4054503 0.630271 0.7921286
  vertex 0.023498978 -0.53569293 1.6469611
 endloop
endfacet
facet normal 0.72282976 -0.55038244 0.4178473
 outer loop
  vertex 1.4221604 -0.565072 -0.8112665
  vertex 0.023498978 -0.53569293 1.6469611
  vertex 0.04020909 -1.731036 0.04356599
 endloop
endfacet
facet normal -0.6909757 -0.58298194 0.42741624
 outer loop
  vertex 0.04020909 -1.731036 0.04356599
  vertex 0.023498978 -0.53569293 1.6469611
  vertex -1.4221604 0.565072 0.8112665
 endloop
endfacet
facet normal -0.6909757 -0.5829819 0.42741624
 outer loop
  vertex 0.04020909 -1.731036 0.04356599
  vertex -1.4221604 0.565072 0.8112665
  vertex -1.4054503 -0.630271 -0.7921286
 endloop
endfacet
facet normal 0.0083550215 -0.59767145 -0.8016976
 outer loop
  vertex -1.4054503 -0.630271 -0.7921286
  vertex -0.023498978 0.53569293 -1.6469611
  vertex 1.4221604 -0.565072 -0.8112665
 endloop
endfacet
facet normal 0.008355047 -0.59767157 -0.80169755
 outer loop
  vertex -1.4054503 -0.630271 -0.7921286
  vertex 1.4221604 -0.565072 -0.8112665
  vertex 0.04020909 -1.731036 0.04356599
 endloop
endfacet
facet normal 0.6909757 0.58298194 -0.42741624
 outer loop
  vertex -0.023498978 0.53569293 -1.6469611
  vertex -0.04020909 1.731036 -0.04356599
  vertex 1.4054503 0.630271 0.7921286
 endloop
endfacet
facet normal 0.6909757 0.5829819 -0.42741624
 outer loop
  vertex -0.023498978 0.53569293 -1.6469611
  vertex 1.4054503 0.630271 0.7921286
  vertex 1.4221604 -0.565072 -0.8112665
 endloop
endfacet
facet normal -0.72282976 0.5503825 -0.41784734
 outer loop
  vertex -1.4054503 -0.630271 -0.7921286
  vertex -1.4221604 0.565072 0.8112665
  vertex -0.04020909 1.731036 -0.04356599
 endloop
endfacet
facet normal -0.7228297 0.55038244 -0.41784734
 outer loop
  vertex -1.4054503 -0.630271 -0.7921286
  vertex -0.04020909 1.731036 -0.04356599
  vertex -0.023498978 0.53569293 -1.6469611
 endloop
endfacet
endsolid 
