solid 
facet normal 0.011278707 -0.5843863 0.81139714
 outer loop
  vertex 2.711637 -1.0354044 0.023226798
  vertex 2.7247143 0.2711107 0.96402633
  vertex -2.5944667 0.2711107 1.0379648
 endloop
endfacet
facet normal 0.011278715 -0.5843863 0.81139714
 outer loop
  vertex -2.607544 -1.0354044 0.097165346
  vertex 2.711637 -1.0354044 0.023226798
  vertex -2.5944667 0.2711107 1.0379648
 endloop
endfacet
facet normal -0.008122397 -0.8114756 -0.58432984
 outer loop
  vertex 2.711637 -1.0354044 0.023226798
  vertex -2.607544 -1.0354044 0.097165346
  vertex -2.622295 -0.2711107 -0.96402633
 endloop
endfacet
facet normal -0.0081223855 -0.8114756 -0.58432984
 outer loop
  vertex 2.696886 -0.2711107 -1.0379648
  vertex 2.711637 -1.0354044 0.023226798
  vertex -2.622295 -0.2711107 -0.96402633
 endloop
endfacet
facet normal 0.99990344 1.0305207e-07 -0.013898955
 outer loop
  vertex 2.7247143 0.2711107 0.96402633
  vertex 2.711637 -1.0354044 0.023226798
  vertex 2.696886 -0.2711107 -1.0379648
 endloop
endfacet
facet normal 0.99990344 1.0349436e-07 -0.013898955
 outer loop
  vertex 2.7099633 1.0354044 -0.097165346
  vertex 2.7247143 0.2711107 0.96402633
  vertex 2.696886 -0.2711107 -1.0379648
 endloop
endfacet
facet normal -0.011278715 0.5843863 -0.81139714
 outer loop
  vertex -2.622295 -0.2711107 -0.96402633
  vertex -2.6092176 1.0354044 -0.023226798
  vertex 2.7099633 1.0354044 -0.097165346
 endloop
endfacet
facet normal -0.0112787075 0.5843863 -0.81139725
 outer loop
  vertex 2.696886 -0.2711107 -1.0379648
  vertex -2.622295 -0.2711107 -0.96402633
  vertex 2.7099633 1.0354044 -0.097165346
 endloop
endfacet
facet normal -0.99990344 -1.026098e-07 0.013898957
 outer loop
  vertex -2.607544 -1.0354044 0.097165346
  vertex -2.5944667 0.2711107 1.0379648
  vertex -2.6092176 1.0354044 -0.023226798
 endloop
endfacet
facet normal -0.99990344 -1.0227808e-07 0.013898954
 outer loop
  vertex -2.622295 -0.2711107 -0.96402633
  vertex -2.607544 -1.0354044 0.097165346
  vertex -2.6092176 1.0354044 -0.023226798
 endloop
endfacet
facet normal 0.00812239 0.8114756 0.58432984
 outer loop
  vertex -2.5944667 0.2711107 1.0379648
  vertex 2.7247143 0.2711107 0.96402633
  vertex 2.7099633 1.0354044 -0.097165346
 endloop
endfacet
facet normal 0.008122402 0.8114756 0.5843298
 outer loop
  vertex -2.6092176 1.0354044 -0.023226798
  vertex -2.5944667 0.2711107 1.0379648
  vertex 2.7099633 1.0354044 -0.097165346
 endloop
endfacet
facet normal 0.011278739 -0.5843862 0.8113972
 outer loop
  vertex -1.3105879 0.29494023 0.9870265
  vertex -1.2759608 3.754414 3.4781349
  vertex -2.514176 3.754414 3.4953465
 endloop
endfacet
facet normal 0.011278609 -0.5843862 0.8113972
 outer loop
  vertex -1.3105879 0.29494023 0.9870265
  vertex -2.514176 3.754414 3.4953465
  vertex -2.548803 0.29494023 1.0042381
 endloop
endfacet
facet normal -0.9999034 -7.9792294e-08 0.013899086
 outer loop
  vertex -2.548803 0.29494023 1.0042381
  vertex -2.514176 3.754414 3.4953465
  vertex -2.5283804 4.490388 2.4734757
 endloop
endfacet
facet normal -0.9999034 -1.4570762e-08 0.013898898
 outer loop
  vertex -2.548803 0.29494023 1.0042381
  vertex -2.5283804 4.490388 2.4734757
  vertex -2.5630074 1.0309143 -0.017632723
 endloop
endfacet
facet normal -0.011278739 0.58438635 -0.8113972
 outer loop
  vertex -2.5630074 1.0309143 -0.017632723
  vertex -2.5283804 4.490388 2.4734757
  vertex -1.2901652 4.490388 2.456264
 endloop
endfacet
facet normal -0.011278791 0.5843863 -0.8113972
 outer loop
  vertex -2.5630074 1.0309143 -0.017632723
  vertex -1.2901652 4.490388 2.456264
  vertex -1.3247923 1.0309144 -0.0348444
 endloop
endfacet
facet normal 0.9999034 4.718153e-08 -0.013898993
 outer loop
  vertex -1.3247923 1.0309144 -0.0348444
  vertex -1.2901652 4.490388 2.456264
  vertex -1.2759608 3.754414 3.4781349
 endloop
endfacet
facet normal 0.9999034 4.718152e-08 -0.013898993
 outer loop
  vertex -1.3247923 1.0309144 -0.0348444
  vertex -1.2759608 3.754414 3.4781349
  vertex -1.3105879 0.29494023 0.9870265
 endloop
endfacet
facet normal -0.008122335 -0.8114756 -0.58432984
 outer loop
  vertex -2.548803 0.29494023 1.0042381
  vertex -2.5630074 1.0309143 -0.017632723
  vertex -1.3247923 1.0309144 -0.0348444
 endloop
endfacet
facet normal -0.00812242 -0.8114755 -0.5843299
 outer loop
  vertex -2.548803 0.29494023 1.0042381
  vertex -1.3247923 1.0309144 -0.0348444
  vertex -1.3105879 0.29494023 0.9870265
 endloop
endfacet
facet normal 0.0081224125 0.8114757 0.5843297
 outer loop
  vertex -2.5283804 4.490388 2.4734757
  vertex -2.514176 3.754414 3.4953465
  vertex -1.2759608 3.754414 3.4781349
 endloop
endfacet
facet normal 0.008122383 0.81147563 0.5843297
 outer loop
  vertex -2.5283804 4.490388 2.4734757
  vertex -1.2759608 3.754414 3.4781349
  vertex -1.2901652 4.490388 2.456264
 endloop
endfacet
facet normal 0.011278775 -0.5843863 0.8113972
 outer loop
  vertex 2.720012 0.2821939 0.9486992
  vertex 2.7518027 3.4582872 3.2357502
  vertex 1.5708835 3.458287 3.2521653
 endloop
endfacet
facet normal 0.011278658 -0.5843863 0.81139714
 outer loop
  vertex 2.720012 0.2821939 0.9486992
  vertex 1.5708835 3.458287 3.2521653
  vertex 1.539093 0.2821939 0.9651144
 endloop
endfacet
facet normal -0.99990344 -2.6450177e-08 0.013898907
 outer loop
  vertex 1.539093 0.2821939 0.9651144
  vertex 1.5708835 3.458287 3.2521653
  vertex 1.5562727 4.2153225 2.2010512
 endloop
endfacet
facet normal -0.99990344 -8.522835e-08 0.013899093
 outer loop
  vertex 1.539093 0.2821939 0.9651144
  vertex 1.5562727 4.2153225 2.2010512
  vertex 1.524482 1.0392295 -0.08599961
 endloop
endfacet
facet normal -0.01127866 0.5843863 -0.81139725
 outer loop
  vertex 1.524482 1.0392295 -0.08599961
  vertex 1.5562727 4.2153225 2.2010512
  vertex 2.7371917 4.2153225 2.184636
 endloop
endfacet
facet normal -0.011278966 0.58438635 -0.8113972
 outer loop
  vertex 1.524482 1.0392295 -0.08599961
  vertex 2.7371917 4.2153225 2.184636
  vertex 2.7054012 1.0392296 -0.10241485
 endloop
endfacet
facet normal 0.99990344 1.3372035e-07 -0.013899055
 outer loop
  vertex 2.7054012 1.0392296 -0.10241485
  vertex 2.7371917 4.2153225 2.184636
  vertex 2.7518027 3.4582872 3.2357502
 endloop
endfacet
facet normal 0.99990344 -2.3511264e-08 -0.013898941
 outer loop
  vertex 2.7054012 1.0392296 -0.10241485
  vertex 2.7518027 3.4582872 3.2357502
  vertex 2.720012 0.2821939 0.9486992
 endloop
endfacet
facet normal -0.008122331 -0.8114757 -0.5843298
 outer loop
  vertex 1.539093 0.2821939 0.9651144
  vertex 1.524482 1.0392295 -0.08599961
  vertex 2.7054012 1.0392296 -0.10241485
 endloop
endfacet
facet normal -0.008122331 -0.8114757 -0.5843299
 outer loop
  vertex 1.539093 0.2821939 0.9651144
  vertex 2.7054012 1.0392296 -0.10241485
  vertex 2.720012 0.2821939 0.9486992
 endloop
endfacet
facet normal 0.008122189 0.8114757 0.5843297
 outer loop
  vertex 1.5562727 4.2153225 2.2010512
  vertex 1.5708835 3.458287 3.2521653
  vertex 2.7518027 3.4582872 3.2357502
 endloop
endfacet
facet normal 0.008122333 0.8114758 0.5843296
 outer loop
  vertex 1.5562727 4.2153225 2.2010512
  vertex 2.7518027 3.4582872 3.2357502
  vertex 2.7371917 4.2153225 2.184636
 endloop
endfacet
facet normal 0.011278721 -0.5843862 0.81139725
 outer loop
  vertex -2.6131198 -1.0222317 0.07894802
  vertex -2.6363573 -3.3437881 -1.5927652
  vertex -1.5064719 -3.3437881 -1.608471
 endloop
endfacet
facet normal 0.011278608 -0.5843862 0.8113973
 outer loop
  vertex -2.6131198 -1.0222317 0.07894802
  vertex -1.5064719 -3.3437881 -1.608471
  vertex -1.4832344 -1.0222318 0.0632422
 endloop
endfacet
facet normal 0.9999034 -2.6515716e-08 -0.013899011
 outer loop
  vertex -1.4832344 -1.0222318 0.0632422
  vertex -1.5064719 -3.3437881 -1.608471
  vertex -1.5203187 -2.6263356 -2.604625
 endloop
endfacet
facet normal 0.9999034 -2.545509e-08 -0.013899012
 outer loop
  vertex -1.4832344 -1.0222318 0.0632422
  vertex -1.5203187 -2.6263356 -2.604625
  vertex -1.4970813 -0.3047794 -0.93291175
 endloop
endfacet
facet normal -0.01127872 0.5843863 -0.8113972
 outer loop
  vertex -1.4970813 -0.3047794 -0.93291175
  vertex -1.5203187 -2.6263356 -2.604625
  vertex -2.6502042 -2.6263356 -2.5889192
 endloop
endfacet
facet normal -0.011278682 0.5843863 -0.8113972
 outer loop
  vertex -1.4970813 -0.3047794 -0.93291175
  vertex -2.6502042 -2.6263356 -2.5889192
  vertex -2.6269667 -0.3047794 -0.9172059
 endloop
endfacet
facet normal -0.9999034 2.6515718e-08 0.013899012
 outer loop
  vertex -2.6269667 -0.3047794 -0.9172059
  vertex -2.6502042 -2.6263356 -2.5889192
  vertex -2.6363573 -3.3437881 -1.5927652
 endloop
endfacet
facet normal -0.9999034 2.5985408e-08 0.013899011
 outer loop
  vertex -2.6269667 -0.3047794 -0.9172059
  vertex -2.6363573 -3.3437881 -1.5927652
  vertex -2.6131198 -1.0222317 0.07894802
 endloop
endfacet
facet normal 0.008122401 0.8114756 0.58432996
 outer loop
  vertex -1.4832344 -1.0222318 0.0632422
  vertex -1.4970813 -0.3047794 -0.93291175
  vertex -2.6269667 -0.3047794 -0.9172059
 endloop
endfacet
facet normal 0.0081225 0.8114756 0.5843299
 outer loop
  vertex -1.4832344 -1.0222318 0.0632422
  vertex -2.6269667 -0.3047794 -0.9172059
  vertex -2.6131198 -1.0222317 0.07894802
 endloop
endfacet
facet normal -0.008122402 -0.81147546 -0.58433
 outer loop
  vertex -1.5203187 -2.6263356 -2.604625
  vertex -1.5064719 -3.3437881 -1.608471
  vertex -2.6363573 -3.3437881 -1.5927652
 endloop
endfacet
facet normal -0.008122371 -0.81147546 -0.58433
 outer loop
  vertex -1.5203187 -2.6263356 -2.604625
  vertex -2.6363573 -3.3437881 -1.5927652
  vertex -2.6502042 -2.6263356 -2.5889192
 endloop
endfacet
facet normal -0.011278562 0.5843862 -0.8113973
 outer loop
  vertex 1.5238816 -1.5273397 -4.1292424
  vertex 1.5923731 5.3153553 0.79806554
  vertex 2.6518304 5.3153553 0.7833389
 endloop
endfacet
facet normal -0.011278464 0.5843863 -0.8113973
 outer loop
  vertex 1.5238816 -1.5273397 -4.1292424
  vertex 2.6518304 5.3153553 0.7833389
  vertex 2.583339 -1.5273397 -4.143969
 endloop
endfacet
facet normal 0.99990344 -1.2874032e-09 -0.013899037
 outer loop
  vertex 2.583339 -1.5273397 -4.143969
  vertex 2.6518304 5.3153553 0.7833389
  vertex 2.7137566 2.1067674 5.238335
 endloop
endfacet
facet normal 0.99990344 -5.020872e-08 -0.013899017
 outer loop
  vertex 2.583339 -1.5273397 -4.143969
  vertex 2.7137566 2.1067674 5.238335
  vertex 2.6452649 -4.7359276 0.31102693
 endloop
endfacet
facet normal 0.01127856 -0.5843862 0.8113973
 outer loop
  vertex 2.6452649 -4.7359276 0.31102693
  vertex 2.7137566 2.1067674 5.238335
  vertex 1.6542991 2.1067674 5.253062
 endloop
endfacet
facet normal 0.011278466 -0.5843862 0.8113973
 outer loop
  vertex 2.6452649 -4.7359276 0.31102693
  vertex 1.6542991 2.1067674 5.253062
  vertex 1.5858076 -4.7359276 0.32575357
 endloop
endfacet
facet normal -0.99990344 2.5748063e-08 0.013899027
 outer loop
  vertex 1.5858076 -4.7359276 0.32575357
  vertex 1.6542991 2.1067674 5.253062
  vertex 1.5923731 5.3153553 0.79806554
 endloop
endfacet
facet normal -0.99990344 2.5828527e-08 0.013899026
 outer loop
  vertex 1.5858076 -4.7359276 0.32575357
  vertex 1.5923731 5.3153553 0.79806554
  vertex 1.5238816 -1.5273397 -4.1292424
 endloop
endfacet
facet normal -0.008122287 -0.8114755 -0.5843299
 outer loop
  vertex 2.583339 -1.5273397 -4.143969
  vertex 2.6452649 -4.7359276 0.31102693
  vertex 1.5858076 -4.7359276 0.32575357
 endloop
endfacet
facet normal -0.008122284 -0.8114755 -0.58432996
 outer loop
  vertex 2.583339 -1.5273397 -4.143969
  vertex 1.5858076 -4.7359276 0.32575357
  vertex 1.5238816 -1.5273397 -4.1292424
 endloop
endfacet
facet normal 0.008122287 0.8114755 0.5843299
 outer loop
  vertex 2.7137566 2.1067674 5.238335
  vertex 2.6518304 5.3153553 0.7833389
  vertex 1.5923731 5.3153553 0.79806554
 endloop
endfacet
facet normal 0.008122283 0.8114756 0.58432996
 outer loop
  vertex 2.7137566 2.1067674 5.238335
  vertex 1.5923731 5.3153553 0.79806554
  vertex 1.6542991 2.1067674 5.253062
 endloop
endfacet
facet normal -0.011278561 0.5843862 -0.8113972
 outer loop
  vertex -2.6728582 -1.7279245 -3.5905623
  vertex -2.6043665 5.1147704 1.3367457
  vertex -1.5449092 5.1147704 1.3220191
 endloop
endfacet
facet normal -0.011278464 0.5843862 -0.81139725
 outer loop
  vertex -2.6728582 -1.7279245 -3.5905623
  vertex -1.5449092 5.1147704 1.3220191
  vertex -1.6134008 -1.7279245 -3.605289
 endloop
endfacet
facet normal 0.99990344 -2.5748065e-08 -0.013899027
 outer loop
  vertex -1.6134008 -1.7279245 -3.605289
  vertex -1.5449092 5.1147704 1.3220191
  vertex -1.4829832 1.9061826 5.777015
 endloop
endfacet
facet normal 0.99990344 -2.5748061e-08 -0.013899026
 outer loop
  vertex -1.6134008 -1.7279245 -3.605289
  vertex -1.4829832 1.9061826 5.777015
  vertex -1.5514748 -4.9365125 0.8497071
 endloop
endfacet
facet normal 0.01127856 -0.5843862 0.8113973
 outer loop
  vertex -1.5514748 -4.9365125 0.8497071
  vertex -1.4829832 1.9061826 5.777015
  vertex -2.5424407 1.9061826 5.791742
 endloop
endfacet
facet normal 0.011278466 -0.5843862 0.81139725
 outer loop
  vertex -1.5514748 -4.9365125 0.8497071
  vertex -2.5424407 1.9061826 5.791742
  vertex -2.610932 -4.9365125 0.86443377
 endloop
endfacet
facet normal -0.99990344 2.7035467e-08 0.013899
 outer loop
  vertex -2.610932 -4.9365125 0.86443377
  vertex -2.5424407 1.9061826 5.791742
  vertex -2.6043665 5.1147704 1.3367457
 endloop
endfacet
facet normal -0.99990344 2.4621587e-08 0.013899052
 outer loop
  vertex -2.610932 -4.9365125 0.86443377
  vertex -2.6043665 5.1147704 1.3367457
  vertex -2.6728582 -1.7279245 -3.5905623
 endloop
endfacet
facet normal -0.008122287 -0.8114755 -0.58432996
 outer loop
  vertex -1.6134008 -1.7279245 -3.605289
  vertex -1.5514748 -4.9365125 0.8497071
  vertex -2.610932 -4.9365125 0.86443377
 endloop
endfacet
facet normal -0.008122283 -0.81147546 -0.58432996
 outer loop
  vertex -1.6134008 -1.7279245 -3.605289
  vertex -2.610932 -4.9365125 0.86443377
  vertex -2.6728582 -1.7279245 -3.5905623
 endloop
endfacet
facet normal 0.008122287 0.81147563 0.5843299
 outer loop
  vertex -1.4829832 1.9061826 5.777015
  vertex -1.5449092 5.1147704 1.3220191
  vertex -2.6043665 5.1147704 1.3367457
 endloop
endfacet
facet normal 0.008122284 0.8114755 0.5843299
 outer loop
  vertex -1.4829832 1.9061826 5.777015
  vertex -2.6043665 5.1147704 1.3367457
  vertex -2.5424407 1.9061826 5.791742
 endloop
endfacet
endsolid 
